<?xml version="1.0" encoding="utf-8"?>
<!-- Generator: Adobe Illustrator 16.0.0, SVG Export Plug-In . SVG Version: 6.00 Build 0)  -->
<!DOCTYPE svg PUBLIC "-//W3C//DTD SVG 1.1//EN" "http://www.w3.org/Graphics/SVG/1.1/DTD/svg11.dtd">
<svg version="1.1" id="Layer_1" xmlns:sketch="http://www.bohemiancoding.com/sketch/ns"
	 xmlns="http://www.w3.org/2000/svg" xmlns:xlink="http://www.w3.org/1999/xlink" x="0px" y="0px" width="10px" height="10px"
	 viewBox="0 0 10 10" enable-background="new 0 0 10 10" xml:space="preserve">
<title></title>
<desc></desc>
<g id="miu">
	<g id="Artboard-1" transform="translate(-215.000000, -155.000000)">
		<g id="slice" transform="translate(215.000000, 119.000000)">
		</g>
		<path id="circle-arrow_down-download-outline-stroke" fill="#4FC5E7" d="M220.417,158.301l1.264,1.264l0.295-0.294l-1.768-1.769
			l-1.768,1.769l0.295,0.294L220,158.3v3.784h0.416V158.301z M225,159.792c0,2.646-2.146,4.792-4.792,4.792
			c-2.646,0-4.792-2.146-4.792-4.792s2.146-4.792,4.792-4.792C222.854,155,225,157.146,225,159.792z M215.833,159.792
			c0,2.416,1.959,4.375,4.375,4.375c2.416,0,4.375-1.959,4.375-4.375c0-2.417-1.959-4.375-4.375-4.375
			C217.792,155.418,215.833,157.376,215.833,159.792z"/>
	</g>
</g>
</svg>
